<svg xmlns="http://www.w3.org/2000/svg" viewBox="0 0 24 24" id="Itch-Io--Streamline-Font-Awesome" height="24" width="24">
  <desc>
    Itch Io Streamline Icon: https://streamlinehq.com
  </desc>
<!--! Font Awesome Free 6.5.2 by @fontawesome - https://fontawesome.com License - https://fontawesome.com/license/free (Icons: CC BY 4.0, Fonts: SIL OFL 1.1, Code: MIT License) Copyright 2024 Fonticons, Inc.-->
  <path d="M3.37125 1.62984375C2.3531250000000004 2.23453125 0.34687500000000004 4.539375 0.328125 5.14359375v1.0003125c0 1.2684374999999999 1.18546875 2.383125 2.26171875 2.383125 1.2923437500000001 0 2.3690625 -1.0710937500000002 2.3690625 -2.34375 0 1.27125 1.0396874999999999 2.34375 2.3325 2.34375s2.296875 -1.0710937500000002 2.296875 -2.34375c0 1.27125 1.10578125 2.34375 2.398125 2.34375h0.0234375c1.2923437500000001 0 2.398125 -1.0710937500000002 2.398125 -2.34375 0 1.27125 1.00640625 2.34375 2.296875 2.34375s2.3325 -1.0710937500000002 2.3325 -2.34375c0 1.27125 1.078125 2.34375 2.3690625 2.34375 1.078125 0 2.26171875 -1.1146875 2.26171875 -2.383125v-1.0003125c-0.018750000000000003 -0.6046875 -2.0250000000000004 -2.90953125 -3.043125 -3.515625C17.46375 1.5187499999999998 15.27 1.5 12 1.5S4.2721875 1.5515625000000002 3.37125 1.62984375zm6.2025 6.299531249999999c-1.03125 1.7999999999999998 -3.6515625000000003 1.81453125 -4.680468749999999 0.01171875 -0.61734375 1.0846875 -2.02359375 1.5032812500000001 -2.625 1.2965625 -0.18140625 1.8820312499999998 -0.64078125 11.11546875 0.83109375 12.616406249999999 3.75 0.8751562500000001 14.16 0.849375 17.80125 0 1.4835937499999998 -1.51265625 0.999375 -10.875 0.83203125 -12.616406249999999 -0.605625 0.208125 -2.0100000000000002 -0.21562499999999998 -2.625 -1.2965625 -1.03125 1.805625 -3.6492187499999997 1.7859375000000002 -4.680468749999999 -0.01125 -0.33281249999999996 0.58546875 -1.08046875 1.3565625000000001 -2.42625 1.3565625000000001a2.6971875 2.6971875 0 0 1 -2.42578125 -1.3565625000000001zm-1.9490625 2.52046875c0.77203125 0 1.45734375 0 2.3071875 0.9271875a20.48015625 20.48015625 0 0 1 4.1334375 0C14.916562500000001 10.453125 15.602343750000001 10.453125 16.37390625 10.453125c2.45296875 0 3.0571875 3.63421875 3.93140625 6.7710937499999995 0.8090625 2.91328125 -0.25875 2.98453125 -1.5914062500000001 2.98734375 -1.9757812499999998 -0.07359375 -3.0698437499999995 -1.5084374999999999 -3.0698437499999995 -2.94328125 -1.83984375 0.30140625 -4.77796875 0.41203124999999996 -7.2914062500000005 0 0 1.43484375 -1.0940625 2.8696875 -3.0698437499999995 2.94328125 -1.3321875 -0.0028125 -2.4000000000000004 -0.0740625 -1.5909375 -2.98734375 0.8751562500000001 -3.140625 1.4793749999999999 -6.7710937499999995 3.931875 -6.7710937499999995zM12 12.693281250000002s-2.0803125000000002 1.91109375 -2.45390625 2.58796875l1.359375 -0.05484375v1.1868750000000001c0 0.07265625 1.0003125 0.0075 1.09359375 0.0075 0.54609375 0.0253125 1.0926562499999999 0.046875 1.0926562499999999 -0.0075v-1.185l1.359375 0.05484375c-0.375 -0.67875 -2.45390625 -2.589375 -2.45390625 -2.589375z" fill="white" stroke-width="0.0469"></path>
</svg>