<svg xmlns="http://www.w3.org/2000/svg" viewBox="0 0 24 24" id="Twitter--Streamline-Font-Awesome" height="24" width="24">
  <desc>
    Twitter Streamline Icon: https://streamlinehq.com
  </desc>
<!--! Font Awesome Free 6.5.2 by @fontawesome - https://fontawesome.com License - https://fontawesome.com/license/free (Icons: CC BY 4.0, Fonts: SIL OFL 1.1, Code: MIT License) Copyright 2024 Fonticons, Inc.-->
  <path d="M21.532968750000002 7.1116875c0.015234375000000001 0.2131875 0.015234375000000001 0.42642187499999995 0.015234375000000001 0.639609375 0 6.5024999999999995 -4.949203125 13.99490625 -13.99490625 13.99490625 -2.7868125 0 -5.375625 -0.8071406250000001 -7.553296875 -2.20809375 0.39595312499999996 0.045656249999999995 0.7766250000000001 0.060890625 1.1878125 0.060890625 2.299453125 0 4.416234375 -0.7766250000000001 6.10659375 -2.1015 -2.1624375 -0.045703125 -3.974625 -1.4619375 -4.599 -3.4111875000000005 0.30459375 0.045656249999999995 0.609140625 0.076125 0.9289687500000001 0.076125 0.44160937499999997 0 0.8832656249999999 -0.060937500000000006 1.29440625 -0.167484375 -2.253796875 -0.456890625 -3.944203125 -2.4365625 -3.944203125 -4.827421875v-0.060890625c0.654796875 0.365484375 1.41628125 0.59390625 2.223328125 0.624328125 -1.324875 -0.8832656249999999 -2.192859375 -2.3908593750000002 -2.192859375 -4.096453125 0 -0.9136875 0.24360937500000002 -1.75125 0.6700312500000001 -2.48221875 2.421328125 2.9847656249999996 6.0609375000000005 4.93396875 10.142109375 5.147203125 -0.076125 -0.365484375 -0.12182812500000001 -0.74615625 -0.12182812500000001 -1.126875 0 -2.7106875 2.19290625 -4.91878125 4.91878125 -4.91878125 1.4162343750000002 0 2.69540625 0.59390625 3.59390625 1.553296875 1.111640625 -0.2131875 2.177625 -0.624375 3.1218281250000004 -1.1878125 -0.36553125 1.14215625 -1.14215625 2.101546875 -2.1624375 2.710640625 0.989859375 -0.10654687500000001 1.9492500000000001 -0.38071875 2.8324687500000003 -0.761390625 -0.6699375 0.9745781250000001 -1.507546875 1.8425625 -2.4669375000000002 2.5431093750000002z" fill="white" stroke-width="0.0469"></path>
</svg>